<?xml version="1.0" encoding="UTF-8"?>
<svg width="180px" height="96px" viewBox="0 0 180 96" version="1.1" xmlns="http://www.w3.org/2000/svg" xmlns:xlink="http://www.w3.org/1999/xlink">
    <!-- Generator: Sketch 58 (84663) - https://sketch.com -->
    <title>Slice</title>
    <desc>Created with Sketch.</desc>
    <g id="Page-1" stroke="none" stroke-width="1" fill="none" fill-rule="evenodd">
        <g id="logo" transform="translate(2.921505, 2.033300)" fill="#000000">
            <polygon id="logo-k" points="150.124996 50 150.124996 71.7779998 161.989226 57.0140304 174.45374 57.0139052 164.495098 69.8955854 163.81193 70.7396628 163.731096 70.8514404 175.175355 91.0113525 161.473604 91.0113525 155.793522 81.0095789 150.1765 88 138.1765 88 138.1765 50"></polygon>
            <path d="M12.1764997,50 L12.1764997,69.7447322 C12.1764997,73.164929 13.2799342,75.9411374 14.4549622,77.5482178 C15.6299901,79.1552982 17.4654757,79.9588384 19.9677619,79.9588384 C22.5199987,79.9588384 24.4117778,79.142619 25.6367563,77.5109728 C26.8617348,75.8785341 27.1764997,73.5954518 27.1764997,70.2251791 L27.1764997,53 L39.1551276,53 L39.1551276,70.2251791 C39.1551276,73.5954518 40.0344164,75.8785341 41.2593949,77.5109728 C42.4875449,79.1434115 44.3753597,79.9588384 46.9283893,79.9588384 C49.4306755,79.9588384 51.2661611,79.1552982 52.4443605,77.5482178 C53.616217,75.9411374 54.19755,73.6453759 54.19755,70.2251791 L54.19755,53 L65.2778712,52.9985702 C64.501051,53.9421949 63.7941687,54.9544102 63.1583319,56.0342548 C60.9723799,59.7502991 59.878661,63.911845 59.878661,68.4644614 C59.878661,73.0831224 60.9874587,77.2663438 63.2107826,80.9575978 C63.368893,81.2204655 63.5317526,81.4792812 63.6993403,81.7340328 C63.0024394,82.9366888 62.1589151,84.0253151 61.1722333,85.0114738 C57.8532948,88.3286525 53.1317757,89.9888268 47.0052974,89.9888268 C44.0415629,89.9888268 41.4235183,89.5276233 39.1551276,88.6091784 C36.8803941,87.6907335 34.9791005,86.2112369 33.4488685,84.1706886 C31.915465,86.2104445 30.0268573,87.6899411 27.7798741,88.6091784 C25.5328908,89.5284157 22.8775814,89.9888268 19.8147387,89.9888268 C13.6383098,89.9888268 8.91361924,88.3286525 5.64780274,85.0114738 C2.37881477,81.694295 0.176499671,76.7380678 0.176499671,70.6639695 L0.176499671,50 L12.1764997,50 Z" id="logo-w"></path>
            <path d="M74.1237782,10.3866653 C80.300207,10.3866653 85.0248976,12.0468395 88.2907141,15.3640183 C91.5597021,18.6811971 93.1930068,23.3748545 93.1930068,29.4489527 L93.1941731,45.5425223 C90.5675227,44.6886779 87.7639652,44.2625698 84.795945,44.2625698 C83.5760474,44.2625698 82.3835404,44.3341115 81.2192711,44.477287 L81.219932,40.5566677 L81.2445109,30.3673976 C81.2445109,26.9472009 80.6585826,24.4335623 79.4835547,22.8264819 C78.3085268,21.2194015 76.4730412,20.4158613 73.970755,20.4158613 C71.4185182,20.4166537 69.5275319,21.2320806 68.3025534,22.8645193 C67.0775749,24.496958 66.1519208,27.2213811 66.1519208,30.5916537 L66.1764997,50 L54.1764997,50 L54.1764997,30.5916537 C54.1764997,27.2213811 53.9048933,24.496958 52.6799148,22.8645193 C51.4517648,21.2320806 49.5631572,20.4166537 47.0109204,20.4166537 C44.5086342,20.4166537 42.6731486,21.2201939 41.4949492,22.8272743 C40.3230927,24.4343547 39.132892,27.171457 39.132892,30.5916537 L39.1764997,50 L27.1764997,50 L27.1764997,29.6724164 C27.1764997,23.5991106 29.447345,18.6811971 32.7662835,15.3640183 C36.0852221,12.0468395 40.8067412,10.3866653 46.9332195,10.3866653 C49.8969539,10.3866653 52.5149986,10.8478688 54.7833892,11.7663137 C57.0581228,12.6847585 58.9594163,14.1642551 60.4896484,16.2048035 C62.0230519,14.1650476 63.9116596,12.685551 66.1586428,11.7663137 C68.405626,10.8470764 71.0609354,10.3866653 74.1237782,10.3866653 Z" id="logo-m"></path>
            <path d="M115.337398,10.3866653 C121.719972,10.3866653 126.621472,11.9034068 130.043483,14.9400597 C133.465494,17.9767126 135.1765,22.5554654 135.1765,28.6794877 L135.1765,46.9338187 L123.227211,46.9338187 C120.977056,50.7621251 117.993895,53.8903038 111.866623,53.8903038 C108.700708,53.8903038 105.948829,52.8884819 103.624145,51.817095 C101.29946,50.7425383 99.0107295,48.1392496 97.785751,46.2516434 C96.5607725,44.3640371 96.2023967,42.2406154 96.2023967,39.8418814 C96.2023967,36.013575 97.4804619,33.4769555 100.365703,31.2842576 C103.248565,29.0883898 107.662452,27.1984062 113.68665,27.1984062 L123.178846,26.9075786 C123.178846,24.3036011 122.43593,23.3883261 120.853369,21.9833194 C119.270015,20.5783127 116.89538,19.8777905 113.729465,19.8777905 C111.535604,19.8777905 109.375836,20.2232969 107.259675,20.9119325 C105.800219,21.3861543 104.035454,22.2218934 102.59457,23.0796183 C102.479517,23.1481066 102.286483,23.2757542 102.286483,23.2757542 L101.659364,23.7039435 L97.0558011,15.611285 L97.7249069,15.1513192 C97.7249069,15.1513192 97.9661851,15.0052754 98.0900961,14.9323397 C100.279329,13.6437271 103.13073,12.383133 105.651742,11.6854842 C108.789907,10.8193408 112.018459,10.3866653 115.337398,10.3866653 Z M123.227211,34.9564521 L115.031351,34.9564521 C110.129852,34.9564521 107.679895,36.5635325 107.679102,39.7808631 C107.679102,41.3102838 108.277716,42.5251035 109.477323,43.4158127 C110.676929,44.3096917 112.326091,44.7550464 114.420051,44.7550464 C116.461682,44.7550464 118.271796,44.2851259 119.85515,43.338153 C121.438504,42.3943499 122.563582,41.0051921 123.227211,39.1675099 L123.227211,39.1675099 L123.227211,34.9564521 Z" id="logo-a"></path>
            <path d="M132.138277,60.8668114 C128.716265,60.8668114 126.036377,61.8232937 124.094648,63.7386355 C122.152918,65.6508076 121.184035,68.5226318 121.184035,72.3509382 L121.124996,88 L109.1765,88 L109.1765,57 L120.409308,57 C121.839639,55.0093758 124.004261,52.5508835 126.432018,51.5294207 C128.856603,50.5079579 132.010584,50 135.1765,50 L135.1765,61.0197535 C133.849241,60.9199053 132.596553,60.8668114 132.138277,60.8668114 Z" id="logo-r"></path>
            <polygon id="logo-l" points="150.152467 34 150.152467 47 138.152467 47 138.152467 41.7720635 138.152467 34.1290326 138.152467 0.9666997 150.152467 0.9666997"></polygon>
            <path d="M84.795945,47.2625698 C88.8179521,47.2625698 92.4580686,48.1280521 95.7164035,49.8590425 C98.9747384,51.5900329 101.533002,54.0719305 103.391271,57.3048097 C105.24954,60.5376889 106.178661,64.2923544 106.178661,68.568919 L106.167698,68.8007035 C106.141597,69.233248 106.068884,70.2251172 105.94956,71.7763264 L74.8682554,71.7763264 C75.4282817,74.3219006 76.7519604,76.332874 78.8393312,77.809307 C80.926702,79.2857401 83.5231487,80.0239455 86.6287492,80.0239455 C88.7670315,80.0239455 90.6634558,79.7057535 92.318079,79.06936 C93.2909545,78.6951771 94.2242202,78.1933937 95.1178856,77.5640037 C95.1465168,77.5438394 95.1992453,77.5058958 95.2760712,77.4501729 L100.040287,85.8322671 C99.964043,85.8854988 99.9116298,85.9218615 99.8830474,85.9413553 C96.33628,88.360328 91.8163809,89.5698009 86.3232818,89.5698009 C81.6903368,89.5698009 77.5920239,88.6661356 74.0282201,86.8587779 C70.4644163,85.0514203 67.7152374,82.5440674 65.780601,79.3366439 C63.8459647,76.1292205 62.878661,72.489104 62.878661,68.4161854 C62.878661,64.3941782 63.833237,60.7667894 65.7424176,57.5339102 C67.6515982,54.301031 70.2735003,51.7809504 73.6082025,49.9735928 C76.9429046,48.1662351 80.6721148,47.2625698 84.795945,47.2625698 Z M84.8723118,56.2738573 C82.1740032,56.2738573 79.9084762,57.0375181 78.0756628,58.5648626 C76.2428494,60.0922071 75.1228135,62.1795466 74.7155217,64.8269437 L74.7155217,64.8269437 L94.9527351,64.8269437 C94.5454432,62.2304581 93.4254074,60.1558463 91.592594,58.603046 C89.7597806,57.0502458 87.5197089,56.2738573 84.8723118,56.2738573 Z" id="logo-e" fill-rule="nonzero"></path>
        </g>
    </g>
</svg>