<?xml version="1.0" encoding="utf-8"?>
<!-- Generator: Adobe Illustrator 17.0.0, SVG Export Plug-In . SVG Version: 6.00 Build 0)  -->
<!DOCTYPE svg PUBLIC "-//W3C//DTD SVG 1.1//EN" "http://www.w3.org/Graphics/SVG/1.1/DTD/svg11.dtd">
<svg version="1.1" id="Layer_1" xmlns="http://www.w3.org/2000/svg" xmlns:xlink="http://www.w3.org/1999/xlink" x="0px" y="0px"
	 width="260.787px" height="141.732px" viewBox="0 0 260.787 141.732" enable-background="new 0 0 260.787 141.732"
	 xml:space="preserve">
<g display="none">
	<path id="diag-left-border_3_" display="inline" fill="none" stroke="#FFFFFF" stroke-width="1.7008" stroke-miterlimit="10" d="
		M167.176,105.536h-11.565V82.929l-7.394-14.454c-1.092,0.253-2.314,0.393-3.707,0.393c-3.088,0-5.831-0.985-8.098-2.029
		c-2.267-1.047-4.414-2.989-5.608-4.828c-1.194-1.839-1.793-3.927-1.793-6.264c0-3.73,1.476-6.202,4.29-8.338
		c0.897-0.683,1.965-1.327,3.169-1.898l-2.576-5.035c-0.024,0.018-0.053,0.038-0.076,0.056l-4.182-8.13
		c0.029-0.021,0.065-0.042,0.095-0.063L113.189,0H69.914c-0.545,0-1.086,0.021-1.627,0.043l16.41,32.08
		c1.474-1.908,3.274-3.302,5.407-4.174c2.191-0.895,4.781-1.344,7.768-1.344c6.024,0,10.631,1.618,13.816,4.85
		c3.188,3.232,4.781,7.806,4.781,13.724V56v5.424v0.897l-11.676,5.687v-6.585V56h0.024v-9.928c0-3.332-0.571-5.781-1.717-7.347
		c-1.146-1.566-2.936-2.349-5.376-2.349c-2.489,0-4.334,0.795-5.528,2.385c-0.864,1.151-1.412,2.752-1.651,4.791l18.405,35.979
		c1.207-1.11,2.555-2.079,4.059-2.893c3.261-1.763,6.911-2.646,10.944-2.646c3.933,0,7.492,0.844,10.68,2.534
		c3.185,1.69,5.689,4.115,7.507,7.271c1.817,3.159,2.726,6.825,2.726,11.001c0,0.149-0.076,1.193-0.225,3.132h-26.278l5.623,10.993
		l3.197,6.25l0,0l13.586,26.559h6.609c4.074,0,7.852-2.126,9.962-5.606c0.754-1.244,1.256-2.597,1.503-3.986h21.942L167.176,105.536
		z M133.884,91.145H114.89l-0.569-1.112c0.515-2.063,1.53-3.734,3.057-5.003c1.793-1.493,4.009-2.24,6.647-2.24
		c2.589,0,4.781,0.759,6.574,2.276C132.391,86.583,133.485,88.608,133.884,91.145z M140.433,55.688c0-0.666,0.115-1.258,0.331-1.782
		l3.16,6.178c-0.651-0.212-1.242-0.485-1.737-0.854C141.017,58.362,140.433,57.178,140.433,55.688z"/>
	<path id="diag-right-border_2_" display="inline" fill="none" stroke="#FFFFFF" stroke-width="1.7008" stroke-miterlimit="10" d="
		M213.648,104.706l12.398,24.237l1.629,3.196h-46.891l-13.609-26.604h0.087v-14.89c0-3.73,0.945-6.528,2.839-8.391
		c1.893-1.866,4.507-2.798,7.844-2.798c0.447,0,1.319,0.052,2.614,0.149V68.868c-3.088,0-5.814,0.495-8.178,1.49
		c-2.367,0.995-4.246,2.461-5.641,4.401h-11.129v8.171l-7.394-14.454c3.589-0.833,5.712-2.947,7.394-5.807l11.637,0.104v-17.9
		c0-5.967-1.669-10.428-5.005-13.387c-3.337-2.959-8.118-4.437-14.342-4.437c-3.237,0-6.385,0.422-9.446,1.266
		c-3.022,0.835-6.526,2.5-8.724,4.025L113.189,0h46.897l20.377,39.834v12.249v6.395v4.374h11.652v-0.239l3.2,6.256h-3.2v36.668
		h11.968l6.097-7.554L213.648,104.706z M155.596,55.09v-4.103h-7.993c-3.764,0-6.039,0.975-6.839,2.919l3.16,6.178
		c0.888,0.289,1.905,0.451,3.083,0.451c1.991,0,3.756-0.458,5.3-1.381C153.851,58.234,154.948,56.881,155.596,55.09z
		 M205.235,88.261l-1.469-2.871v0.001v4.696L205.235,88.261L205.235,88.261z M153.28,38.347c-1.544-1.369-3.86-2.052-6.947-2.052
		c-2.14,0-4.246,0.337-6.309,1.008c-2.034,0.66-4.67,2.039-6.129,3.173l2.576,5.035c2.568-1.22,5.823-2.082,9.822-2.082l9.257-0.283
		C155.548,40.608,154.824,39.716,153.28,38.347z"/>
	<path id="holes-outlines_1_" display="inline" fill="none" stroke="#FFFFFF" stroke-width="0.8504" stroke-miterlimit="10" d="
		M211.633,12.073c0,2.494-2.025,4.515-4.522,4.515s-4.522-2.022-4.522-4.515s2.024-4.515,4.522-4.515S211.633,9.579,211.633,12.073z
		 M84.576,7.557c-2.497,0-4.522,2.022-4.522,4.515s2.024,4.515,4.522,4.515s4.522-2.022,4.522-4.515S87.074,7.557,84.576,7.557z
		 M249.143,115.997c-2.497,0-4.522,2.022-4.522,4.515s2.025,4.515,4.522,4.515s4.522-2.022,4.522-4.515
		S251.64,115.997,249.143,115.997z M11.645,49.815c-2.497,0-4.522,2.022-4.522,4.515c0,2.494,2.024,4.515,4.522,4.515
		s4.522-2.022,4.522-4.515C16.166,51.837,14.142,49.815,11.645,49.815z M58.534,125.771c-2.497,0-4.522,2.022-4.522,4.515
		s2.024,4.515,4.522,4.515c2.497,0,4.522-2.022,4.522-4.515S61.031,125.771,58.534,125.771z M146.291,125.771
		c-2.497,0-4.522,2.022-4.522,4.515s2.025,4.515,4.522,4.515s4.522-2.022,4.522-4.515S148.789,125.771,146.291,125.771z
		 M246.967,60.446c-2.497,0-4.522,2.022-4.522,4.515c0,2.494,2.025,4.515,4.522,4.515s4.522-2.022,4.522-4.515
		C251.489,62.467,249.464,60.446,246.967,60.446z"/>
	<g id="logo-outlines_2_" display="inline">
		<path fill="#FFFFFF" d="M207.113,0c3.089,0,6.051,1.225,8.234,3.406c2.184,2.181,3.411,5.139,3.41,8.223l-0.003,39.888
			c1.978-0.002,4.081-0.003,6.204-0.003c4.92,0,9.947,0.007,13.763,0.028c3.642,0.021,14.726,0.084,19.139,9.097
			c4.336,8.857-2.117,17.236-4.238,19.989c-2.902,3.768-5.381,7.199-7.248,9.862l13.054,24.572
			c1.915,3.604,1.798,7.947-0.308,11.443c-2.106,3.496-5.893,5.635-9.979,5.635h-9.131l-8.686-16.966h0.006l-1.966-3.844
			l-0.06-0.117l-3.054-5.97l-0.003,0.002l-8.61-16.807l10.597-13.679h-12.142l-10.859,13.503l-1.469,1.826v-4.696V68.868h-11.652
			v36.668h11.968l6.097-7.554l6.884,13.347l1.55,3.029l9.062,17.782h-68.833c-0.247,1.389-0.749,2.742-1.503,3.986
			c-2.11,3.48-5.888,5.606-9.962,5.606H41.354c-0.225,0-0.449-0.006-0.673-0.019C17.869,140.395,0,121.549,0,98.809V54.292
			c0-6.422,5.213-11.628,11.644-11.628h14.997C26.641,19.45,46.755,0,69.914,0H207.113 M180.462,62.851h11.652v-4.374v-6.395v-40.01
			h-11.652v40.01v6.395V62.851 M84.576,32.273c-1.492-1.988-3.346-3.429-5.565-4.325c-2.212-0.895-4.765-1.344-7.656-1.344
			c-5.975,0-10.579,1.618-13.816,4.85c-3.237,3.232-4.857,7.806-4.857,13.724v17.594h11.694v-0.978h-0.042V46.072
			c0-3.332,0.574-5.781,1.717-7.347c1.149-1.566,2.939-2.349,5.379-2.349c2.489,0,4.331,0.795,5.528,2.385
			c1.194,1.59,1.79,4.027,1.79,7.311v16.699h11.676v-1.464h-0.024V46.072c0-3.284,0.599-5.721,1.793-7.311
			c1.194-1.59,3.039-2.385,5.528-2.385c2.44,0,4.23,0.783,5.376,2.349c1.146,1.566,1.717,4.015,1.717,7.347V56h-0.024v5.424v6.585
			l11.676-5.687v-0.897V56V45.177c0-5.918-1.592-10.491-4.781-13.724c-3.185-3.232-7.792-4.85-13.816-4.85
			c-2.987,0-5.577,0.449-7.768,1.344C87.913,28.844,86.072,30.285,84.576,32.273 M133.818,40.532
			c1.444-1.144,4.138-2.558,6.205-3.228c2.064-0.671,4.17-1.008,6.309-1.008c3.088,0,5.404,0.683,6.947,2.052
			c1.544,1.369,2.268,2.261,2.268,4.798l-9.257,0.283c-5.875,0-10.18,1.841-12.991,3.981c-2.814,2.137-4.29,4.608-4.29,8.338
			c0,2.337,0.599,4.425,1.793,6.264c1.194,1.839,3.341,3.781,5.608,4.828c2.267,1.044,5.01,2.029,8.098,2.029
			c5.975,0,8.907-2.47,11.101-6.2l11.637,0.104v-17.9c0-5.966-1.669-10.428-5.005-13.387c-3.337-2.959-8.118-4.437-14.342-4.437
			c-3.237,0-6.385,0.422-9.446,1.266c-3.063,0.847-6.627,2.546-8.818,4.087L133.818,40.532 M45.238,115.311
			c2.987,0,5.577-0.449,7.768-1.344c2.191-0.895,4.033-2.337,5.528-4.325c1.492,1.988,3.346,3.429,5.565,4.325
			c2.213,0.895,4.765,1.344,7.656,1.344c5.975,0,10.579-1.618,13.816-4.85c3.237-3.232,4.856-7.806,4.856-13.724V74.759H78.775
			v21.084c0,3.332-0.574,5.781-1.717,7.347c-1.149,1.566-2.939,2.349-5.379,2.349c-2.489,0-4.331-0.795-5.528-2.385
			c-1.194-1.59-1.79-4.027-1.79-7.311V74.759H52.708v21.084c0,3.284-0.599,5.721-1.793,7.311c-1.194,1.59-3.039,2.385-5.528,2.385
			c-2.44,0-4.23-0.783-5.376-2.349c-1.146-1.566-1.717-4.015-1.717-7.347V68.868H26.641v27.87c0,5.918,1.593,10.491,4.781,13.724
			C34.607,113.694,39.214,115.311,45.238,115.311 M155.611,105.536h11.652v-14.89c0-3.73,0.945-6.528,2.839-8.391
			c1.893-1.866,4.507-2.798,7.844-2.798c0.447,0,1.319,0.052,2.614,0.149V68.868c-3.088,0-5.814,0.495-8.178,1.49
			c-2.367,0.995-4.246,2.461-5.641,4.401h-11.129V105.536 M125.444,115.311c0.616,0,1.147-0.107,1.738-0.138l-4.93-9.637
			c-1.528-0.351-2.938-0.872-4.126-1.712c-2.042-1.442-3.337-3.405-3.884-5.894h30.397c0.149-1.939,0.225-2.983,0.225-3.132
			c0-4.176-0.909-7.842-2.726-11.001c-1.817-3.156-4.322-5.581-7.507-7.271c-3.188-1.69-6.747-2.534-10.68-2.534
			c-4.033,0-7.683,0.883-10.944,2.646c-3.261,1.766-5.826,4.228-7.692,7.384c-1.866,3.159-2.802,6.701-2.802,10.628
			c0,3.979,0.945,7.532,2.839,10.664c1.893,3.135,4.583,5.584,8.069,7.347C116.904,114.428,120.913,115.311,125.444,115.311
			 M155.596,50.987v4.103c-0.647,1.791-1.744,3.144-3.288,4.064c-1.544,0.923-3.31,1.381-5.3,1.381c-2.042,0-3.65-0.434-4.82-1.305
			c-1.17-0.868-1.754-2.052-1.754-3.542c0-3.135,2.389-4.701,7.169-4.701H155.596 M124.025,82.79c2.589,0,4.781,0.759,6.574,2.276
			c1.793,1.517,2.887,3.542,3.285,6.079h-19.791c0.398-2.586,1.492-4.625,3.285-6.115C119.171,83.536,121.387,82.79,124.025,82.79
			 M207.113-0.85h-137.2c-11.301,0-22.569,4.691-30.916,12.87C30.693,20.158,26.026,30.708,25.8,41.813H11.644
			c-6.89,0-12.495,5.598-12.495,12.479v44.517c0,23.19,18.221,42.409,41.483,43.753c0.241,0.014,0.481,0.021,0.722,0.021h106.023
			c4.344,0,8.439-2.305,10.689-6.016c0.676-1.115,1.168-2.315,1.468-3.576h68.141h1.388l-0.63-1.236l-9.062-17.782l-1.55-3.03
			l-6.886-13.35l-0.598-1.16l-0.819,1.015l-5.842,7.238h-10.711V69.718h9.951v15.673v4.696v2.415l1.513-1.882l1.469-1.826
			l10.603-13.185h10.001l-9.535,12.308l-0.331,0.427l0.247,0.481l8.61,16.807l0.407,0.794l0.003-0.002l2.647,5.175l0.06,0.117
			l1.333,2.606h-0.001l0.627,1.238l8.686,16.966l0.237,0.463h0.52h9.131c4.358,0,8.46-2.317,10.707-6.046
			c2.247-3.73,2.373-8.436,0.33-12.281l-12.809-24.111c2.239-3.181,4.567-6.343,6.926-9.405c2.201-2.858,8.896-11.552,4.328-20.882
			c-4.644-9.486-16.125-9.551-19.897-9.573c-3.338-0.019-7.97-0.028-13.769-0.028c-1.821,0-3.628,0.001-5.354,0.002l0.003-39.037
			c0-3.333-1.299-6.468-3.66-8.825C213.589,0.448,210.451-0.85,207.113-0.85L207.113-0.85z M181.313,12.923h9.951v39.159v6.395
			v3.524h-9.951v-3.524v-6.395V12.923L181.313,12.923z M84.576,33.689l0.68-0.904c1.395-1.855,3.135-3.217,5.17-4.049
			c2.081-0.85,4.586-1.281,7.446-1.281c5.76,0,10.205,1.546,13.21,4.596c3.01,3.051,4.536,7.468,4.536,13.127V56v5.424v0.366
			l-9.976,4.859v-5.224v-4.574l0.024-0.85v-9.928c0-3.552-0.615-6.119-1.881-7.849c-1.309-1.79-3.349-2.697-6.062-2.697
			c-2.761,0-4.85,0.917-6.208,2.725c-1.303,1.735-1.964,4.366-1.964,7.822v15.235v0.613h-9.951V46.072
			c0-3.507-0.641-6.065-1.96-7.822c-1.362-1.809-3.45-2.725-6.208-2.725c-2.712,0-4.752,0.907-6.065,2.696
			c-1.267,1.736-1.882,4.303-1.882,7.85v15.721v0.128h-9.951V45.177c0-5.654,1.55-10.069,4.607-13.122
			c3.057-3.053,7.503-4.601,13.215-4.601c2.765,0,5.234,0.431,7.337,1.282c2.062,0.832,3.812,2.193,5.204,4.047L84.576,33.689
			L84.576,33.689z M130.739,32.685c2.206-1.42,5.359-2.837,7.943-3.551c2.972-0.819,6.074-1.235,9.219-1.235
			c5.982,0,10.617,1.421,13.777,4.223c3.131,2.777,4.719,7.067,4.719,12.75v17.041l-10.779-0.096l-0.491-0.004l-0.249,0.424
			c-1.766,3.002-4.245,5.781-10.368,5.781c-3.143,0-5.924-1.113-7.742-1.951c-2.009-0.928-4.071-2.702-5.251-4.519
			c-1.099-1.692-1.656-3.644-1.656-5.801c0-3.266,1.183-5.557,3.954-7.661c2.283-1.737,6.3-3.808,12.477-3.808l9.283-0.284
			l0.824-0.025v-0.825c0-2.956-0.965-4.025-2.554-5.434c-1.696-1.503-4.223-2.266-7.512-2.266c-2.219,0-4.43,0.353-6.572,1.049
			c-1.797,0.583-4.047,1.699-5.639,2.768L130.739,32.685L130.739,32.685z M27.492,69.718h9.951v26.124
			c0,3.552,0.615,6.119,1.881,7.85c1.31,1.79,3.349,2.697,6.063,2.697c2.761,0,4.85-0.917,6.208-2.725
			c1.303-1.735,1.963-4.366,1.963-7.822V75.609h9.951v20.234c0,3.507,0.641,6.065,1.961,7.822c1.362,1.808,3.45,2.725,6.208,2.725
			c2.712,0,4.752-0.907,6.065-2.696c1.267-1.736,1.882-4.303,1.882-7.85V75.609h9.951v21.129c0,5.654-1.55,10.069-4.607,13.122
			c-3.057,3.053-7.504,4.601-13.215,4.601c-2.765,0-5.234-0.431-7.337-1.282c-2.062-0.832-3.812-2.193-5.204-4.047l-0.679-0.905
			l-0.68,0.904c-1.395,1.855-3.135,3.217-5.17,4.049c-2.081,0.85-4.586,1.281-7.446,1.281c-5.76,0-10.205-1.546-13.21-4.596
			c-3.01-3.052-4.536-7.468-4.536-13.127V69.718L27.492,69.718z M156.461,75.609h10.279h0.436l0.255-0.354
			c1.295-1.801,3.072-3.185,5.28-4.113c2.027-0.853,4.378-1.327,6.998-1.41v8.96c-0.851-0.058-1.421-0.085-1.763-0.085
			c-3.553,0-6.393,1.024-8.441,3.043c-2.051,2.019-3.092,5.046-3.092,8.997v14.04h-9.951V75.609L156.461,75.609z M125.444,114.461
			c-4.376,0-8.292-0.86-11.638-2.557c-3.326-1.682-5.925-4.047-7.726-7.029c-1.802-2.981-2.716-6.421-2.716-10.225
			c0-3.75,0.903-7.18,2.684-10.195c1.777-3.006,4.255-5.384,7.365-7.069c3.121-1.688,6.667-2.544,10.539-2.544
			c3.775,0,7.234,0.819,10.281,2.435c3.028,1.607,5.44,3.944,7.168,6.945c1.734,3.014,2.613,6.572,2.613,10.577
			c-0.003,0.162-0.093,1.375-0.162,2.282h-29.61h-1.058l0.227,1.033c0.591,2.689,2.012,4.845,4.224,6.406
			c1.085,0.767,2.409,1.342,4.038,1.753l4.181,8.173C125.718,114.454,125.582,114.461,125.444,114.461L125.444,114.461z
			 M156.446,50.137h-0.85h-7.993c-6.628,0-8.02,3.019-8.02,5.551c0,1.771,0.706,3.192,2.097,4.225
			c1.312,0.977,3.105,1.472,5.327,1.472c2.139,0,4.069-0.505,5.736-1.501c1.711-1.019,2.94-2.535,3.652-4.505l0.051-0.14V55.09
			v-4.103V50.137L156.446,50.137z M124.025,81.939c-2.83,0-5.249,0.82-7.191,2.437c-1.947,1.618-3.152,3.852-3.582,6.639
			l-0.151,0.98h0.991h19.791h0.994l-0.154-0.982c-0.429-2.732-1.632-4.951-3.576-6.596
			C129.205,82.773,126.808,81.939,124.025,81.939L124.025,81.939z"/>
	</g>
</g>
<path fill="#B19D87" d="M133.884,91.145h-19.791c0.398-2.586,1.492-4.625,3.285-6.115c1.793-1.493,4.009-2.24,6.647-2.24
	c2.589,0,4.781,0.759,6.574,2.276C132.391,86.583,133.485,88.608,133.884,91.145z M259.122,126.505
	c-2.106,3.496-5.893,5.635-9.979,5.635h-9.131l-8.686-16.966h0.006l-1.966-3.844l-0.06-0.117l-3.054-5.97l-0.003,0.002l-8.61-16.807
	l10.597-13.679h-12.142l-10.859,13.503l-1.469,1.826v-4.696V68.868h-11.652v36.668h11.968l6.097-7.554l6.884,13.347l1.55,3.029
	l9.062,17.782h-68.833c-0.247,1.389-0.749,2.742-1.503,3.986c-2.11,3.48-5.888,5.606-9.962,5.606H41.354
	c-0.225,0-0.449-0.006-0.673-0.019C17.869,140.395,0,121.549,0,98.809V54.292c0-6.422,5.213-11.628,11.644-11.628h14.997
	C26.641,19.45,46.755,0,69.914,0h137.2c3.089,0,6.051,1.225,8.234,3.406c2.184,2.181,3.411,5.139,3.41,8.223l-0.003,39.888
	c1.978-0.002,4.081-0.003,6.204-0.003c4.92,0,9.947,0.007,13.763,0.028c3.642,0.021,14.726,0.084,19.139,9.097
	c4.336,8.857-2.117,17.236-4.238,19.989c-2.902,3.768-5.381,7.199-7.248,9.862l13.054,24.572
	C261.344,118.666,261.227,123.009,259.122,126.505z M80.055,12.073c0,2.494,2.024,4.515,4.522,4.515
	c2.497,0,4.522-2.022,4.522-4.515c0-2.494-2.024-4.515-4.522-4.515C82.079,7.557,80.055,9.579,80.055,12.073z M16.166,54.331
	c0-2.494-2.024-4.515-4.522-4.515c-2.497,0-4.522,2.022-4.522,4.515c0,2.494,2.024,4.515,4.522,4.515
	C14.142,58.846,16.166,56.824,16.166,54.331z M63.056,130.287c0-2.494-2.025-4.515-4.522-4.515c-2.497,0-4.522,2.022-4.522,4.515
	c0,2.494,2.024,4.515,4.522,4.515C61.031,134.802,63.056,132.781,63.056,130.287z M90.427,74.759H78.775v21.084
	c0,3.332-0.574,5.781-1.717,7.347c-1.149,1.566-2.939,2.349-5.379,2.349c-2.489,0-4.331-0.795-5.528-2.385
	c-1.194-1.59-1.79-4.027-1.79-7.311V74.759H52.708v21.084c0,3.284-0.599,5.721-1.793,7.311c-1.194,1.59-3.039,2.385-5.528,2.385
	c-2.44,0-4.23-0.783-5.376-2.349c-1.146-1.566-1.717-4.015-1.717-7.347V68.868H26.641v27.87c0,5.918,1.593,10.491,4.781,13.724
	c3.185,3.232,7.792,4.85,13.816,4.85c2.987,0,5.577-0.449,7.768-1.344c2.191-0.895,4.033-2.337,5.528-4.325
	c1.492,1.988,3.346,3.429,5.565,4.325c2.213,0.895,4.765,1.344,7.656,1.344c5.975,0,10.579-1.618,13.816-4.85
	c3.237-3.232,4.857-7.806,4.857-13.724V74.759z M97.724,36.376c2.44,0,4.23,0.783,5.376,2.349c1.146,1.566,1.717,4.015,1.717,7.347
	V56h-0.024v5.424v6.585l11.676-5.687v-0.897V56V45.177c0-5.918-1.592-10.491-4.781-13.724c-3.185-3.232-7.792-4.85-13.816-4.85
	c-2.987,0-5.577,0.449-7.768,1.344c-2.191,0.895-4.033,2.337-5.528,4.325c-1.492-1.988-3.346-3.429-5.565-4.325
	c-2.212-0.895-4.765-1.344-7.656-1.344c-5.975,0-10.579,1.618-13.816,4.85c-3.237,3.232-4.857,7.806-4.857,13.724v17.594h11.694
	v-0.978h-0.042V46.072c0-3.332,0.574-5.781,1.717-7.347c1.149-1.566,2.939-2.349,5.379-2.349c2.489,0,4.331,0.795,5.528,2.385
	c1.194,1.59,1.79,4.027,1.79,7.311v16.699h11.676v-1.464h-0.024V46.072c0-3.284,0.599-5.721,1.793-7.311
	C93.39,37.171,95.235,36.376,97.724,36.376z M127.182,115.174l-4.93-9.637c-1.528-0.351-2.938-0.872-4.126-1.712
	c-2.042-1.442-3.337-3.405-3.884-5.894h30.397c0.149-1.939,0.225-2.983,0.225-3.132c0-4.176-0.909-7.842-2.726-11.001
	c-1.817-3.156-4.322-5.581-7.507-7.271c-3.188-1.69-6.747-2.534-10.68-2.534c-4.033,0-7.683,0.883-10.944,2.646
	c-3.261,1.766-5.826,4.228-7.692,7.384c-1.866,3.159-2.802,6.701-2.802,10.628c0,3.979,0.945,7.532,2.839,10.664
	c1.893,3.135,4.583,5.584,8.069,7.347c3.483,1.766,7.491,2.649,12.023,2.649C126.06,115.311,126.591,115.205,127.182,115.174z
	 M150.813,130.287c0-2.494-2.024-4.515-4.522-4.515c-2.497,0-4.522,2.022-4.522,4.515c0,2.494,2.024,4.515,4.522,4.515
	C148.789,134.802,150.813,132.781,150.813,130.287z M155.611,62.668l11.637,0.104v-17.9c0-5.967-1.669-10.428-5.005-13.387
	c-3.337-2.959-8.118-4.437-14.342-4.437c-3.237,0-6.385,0.422-9.446,1.266c-3.063,0.847-6.627,2.546-8.818,4.087l4.182,8.13
	c1.444-1.144,4.138-2.558,6.205-3.228c2.064-0.671,4.17-1.008,6.309-1.008c3.088,0,5.404,0.683,6.947,2.052
	c1.544,1.369,2.268,2.261,2.268,4.798l-9.257,0.283c-5.875,0-10.18,1.841-12.991,3.981c-2.814,2.137-4.29,4.608-4.29,8.338
	c0,2.337,0.599,4.425,1.793,6.264c1.194,1.839,3.341,3.781,5.608,4.828c2.267,1.044,5.01,2.029,8.098,2.029
	C150.485,68.868,153.417,66.398,155.611,62.668z M180.559,68.868c-3.088,0-5.814,0.495-8.178,1.49
	c-2.367,0.995-4.246,2.461-5.641,4.401h-11.129v30.778h11.652v-14.89c0-3.73,0.945-6.528,2.839-8.391
	c1.893-1.866,4.507-2.798,7.844-2.798c0.447,0,1.319,0.052,2.614,0.149V68.868z M192.114,12.073h-11.652v40.01v6.395v4.374h11.652
	v-4.374v-6.395V12.073z M211.633,12.073c0-2.494-2.025-4.515-4.522-4.515c-2.497,0-4.522,2.022-4.522,4.515
	c0,2.494,2.024,4.515,4.522,4.515C209.609,16.588,211.633,14.567,211.633,12.073z M246.967,69.476c2.497,0,4.522-2.022,4.522-4.515
	c0-2.494-2.024-4.515-4.522-4.515c-2.497,0-4.522,2.022-4.522,4.515C242.445,67.455,244.47,69.476,246.967,69.476z M253.665,120.512
	c0-2.494-2.024-4.515-4.522-4.515c-2.497,0-4.522,2.022-4.522,4.515c0,2.494,2.024,4.515,4.522,4.515
	C251.64,125.027,253.665,123.006,253.665,120.512z M140.433,55.688c0,1.49,0.583,2.674,1.754,3.542
	c1.17,0.871,2.778,1.305,4.82,1.305c1.991,0,3.756-0.458,5.3-1.381c1.544-0.92,2.641-2.273,3.288-4.064v-4.103h-7.993
	C142.822,50.987,140.433,52.553,140.433,55.688z"/>
<path id="diag-left_1_" fill="#F15742" d="M167.176,105.536h-11.565V82.929l-7.394-14.454c-1.092,0.253-2.314,0.393-3.707,0.393
	c-3.088,0-5.831-0.985-8.098-2.029c-2.267-1.047-4.414-2.989-5.608-4.828c-1.194-1.839-1.793-3.927-1.793-6.264
	c0-3.73,1.476-6.202,4.29-8.338c0.897-0.683,1.965-1.327,3.169-1.898l-2.576-5.035c-0.024,0.018-0.053,0.038-0.076,0.056
	l-4.182-8.13c0.029-0.021,0.065-0.042,0.095-0.063L113.189,0H69.914c-0.545,0-1.086,0.021-1.627,0.043l16.41,32.08
	c1.474-1.908,3.274-3.302,5.407-4.174c2.191-0.895,4.781-1.344,7.768-1.344c6.024,0,10.631,1.618,13.816,4.85
	c3.188,3.232,4.781,7.806,4.781,13.724V56v5.424v0.897l-11.676,5.687v-6.585V56h0.024v-9.928c0-3.332-0.571-5.781-1.717-7.347
	c-1.146-1.566-2.936-2.349-5.376-2.349c-2.489,0-4.334,0.795-5.528,2.385c-0.864,1.151-1.412,2.752-1.651,4.791l18.405,35.979
	c1.207-1.11,2.555-2.079,4.059-2.893c3.261-1.763,6.911-2.646,10.944-2.646c3.933,0,7.492,0.844,10.68,2.534
	c3.185,1.69,5.689,4.115,7.507,7.271c1.817,3.159,2.726,6.825,2.726,11.001c0,0.149-0.076,1.193-0.225,3.132h-26.278l5.623,10.993
	l3.197,6.25l0,0l13.586,26.559h6.609c4.074,0,7.852-2.126,9.962-5.606c0.754-1.244,1.256-2.597,1.503-3.986h21.942L167.176,105.536z
	 M84.576,16.588c-2.497,0-4.522-2.022-4.522-4.515c0-2.494,2.024-4.515,4.522-4.515c2.497,0,4.522,2.022,4.522,4.515
	C89.098,14.567,87.074,16.588,84.576,16.588z M146.291,134.802c-2.497,0-4.522-2.022-4.522-4.515c0-2.494,2.024-4.515,4.522-4.515
	c2.497,0,4.522,2.022,4.522,4.515C150.813,132.781,148.789,134.802,146.291,134.802z M133.884,91.145H114.89l-0.569-1.112
	c0.515-2.063,1.53-3.734,3.057-5.003c1.793-1.493,4.009-2.24,6.647-2.24c2.589,0,4.781,0.759,6.574,2.276
	C132.391,86.583,133.485,88.608,133.884,91.145z M140.433,55.688c0-0.666,0.115-1.258,0.331-1.782l3.16,6.178
	c-0.651-0.212-1.242-0.485-1.737-0.854C141.017,58.362,140.433,57.178,140.433,55.688z"/>
<path id="diag-right_2_" fill="#356F73" d="M213.648,104.706l12.398,24.237l1.629,3.196h-46.891l-13.609-26.604h0.087v-14.89
	c0-3.73,0.945-6.528,2.839-8.391c1.893-1.866,4.507-2.798,7.844-2.798c0.447,0,1.319,0.052,2.614,0.149V68.868
	c-3.088,0-5.814,0.495-8.178,1.49c-2.367,0.995-4.246,2.461-5.641,4.401h-11.129v8.171l-7.394-14.454
	c3.589-0.833,5.712-2.947,7.394-5.807l11.637,0.104v-17.9c0-5.967-1.669-10.428-5.005-13.387c-3.337-2.959-8.118-4.437-14.342-4.437
	c-3.237,0-6.385,0.422-9.446,1.266c-3.022,0.835-6.526,2.5-8.724,4.025L113.189,0h46.897l20.377,39.834v12.249v6.395v4.374h11.652
	v-0.239l3.2,6.256h-3.2v36.668h11.968l6.097-7.554L213.648,104.706z M155.596,55.09v-4.103h-7.993c-3.764,0-6.039,0.975-6.839,2.919
	l3.16,6.178c0.888,0.289,1.905,0.451,3.083,0.451c1.991,0,3.756-0.458,5.3-1.381C153.851,58.234,154.948,56.881,155.596,55.09z
	 M205.235,88.261l-1.469-2.871v0.001v4.696L205.235,88.261L205.235,88.261z M153.28,38.347c-1.544-1.369-3.86-2.052-6.947-2.052
	c-2.14,0-4.246,0.337-6.309,1.008c-2.034,0.66-4.67,2.039-6.129,3.173l2.576,5.035c2.568-1.22,5.823-2.082,9.822-2.082l9.257-0.283
	C155.548,40.608,154.824,39.716,153.28,38.347z"/>
<g display="none">
	<defs>
		<path id="SVGID_1_" d="M147.603,50.987h7.993v4.103c-0.647,1.791-1.744,3.144-3.288,4.064c-1.544,0.923-3.31,1.381-5.3,1.381
			c-2.042,0-3.65-0.434-4.82-1.305c-1.17-0.868-1.754-2.052-1.754-3.542C140.433,52.553,142.822,50.987,147.603,50.987z
			 M130.598,85.066c-1.793-1.517-3.984-2.276-6.574-2.276c-2.638,0-4.853,0.747-6.647,2.24c-1.793,1.49-2.887,3.529-3.285,6.115
			h19.791C133.485,88.608,132.391,86.583,130.598,85.066z M259.122,126.505c-2.106,3.496-5.893,5.635-9.979,5.635h-9.131
			l-8.686-16.966h0.006l-1.966-3.844l-0.06-0.117l-3.054-5.97l-0.003,0.002l-8.61-16.807l10.597-13.679h-12.142l-10.859,13.503
			l-1.469,1.826v-4.696V68.868h-11.652v36.668h11.968l6.097-7.554l6.884,13.347l1.55,3.029l9.062,17.782h-68.833
			c-0.247,1.389-0.749,2.742-1.503,3.986c-2.11,3.48-5.888,5.606-9.962,5.606H41.354c-0.225,0-0.449-0.006-0.673-0.019
			C17.869,140.395,0,121.549,0,98.809V54.292c0-6.422,5.213-11.628,11.644-11.628h14.997C26.641,19.45,46.755,0,69.914,0h137.2
			c3.089,0,6.051,1.225,8.234,3.406c2.184,2.181,3.411,5.139,3.41,8.223l-0.003,39.888c1.978-0.002,4.081-0.003,6.204-0.003
			c4.92,0,9.947,0.007,13.763,0.028c3.642,0.021,14.726,0.084,19.139,9.097c4.336,8.857-2.117,17.236-4.238,19.989
			c-2.902,3.768-5.381,7.199-7.248,9.862l13.054,24.572C261.344,118.666,261.227,123.009,259.122,126.505z M80.055,12.073
			c0,2.494,2.024,4.515,4.522,4.515c2.497,0,4.522-2.022,4.522-4.515c0-2.494-2.024-4.515-4.522-4.515
			C82.079,7.557,80.055,9.579,80.055,12.073z M16.166,54.331c0-2.494-2.024-4.515-4.522-4.515c-2.497,0-4.522,2.022-4.522,4.515
			c0,2.494,2.024,4.515,4.522,4.515C14.142,58.846,16.166,56.824,16.166,54.331z M63.056,130.287c0-2.494-2.025-4.515-4.522-4.515
			c-2.497,0-4.522,2.022-4.522,4.515c0,2.494,2.024,4.515,4.522,4.515C61.031,134.802,63.056,132.781,63.056,130.287z
			 M90.427,74.759H78.775v21.084c0,3.332-0.574,5.781-1.717,7.347c-1.149,1.566-2.939,2.349-5.379,2.349
			c-2.489,0-4.331-0.795-5.528-2.385c-1.194-1.59-1.79-4.027-1.79-7.311V74.759H52.708v21.084c0,3.284-0.599,5.721-1.793,7.311
			c-1.194,1.59-3.039,2.385-5.528,2.385c-2.44,0-4.23-0.783-5.376-2.349c-1.146-1.566-1.717-4.015-1.717-7.347V68.868H26.641v27.87
			c0,5.918,1.593,10.491,4.781,13.724c3.185,3.232,7.792,4.85,13.816,4.85c2.987,0,5.577-0.449,7.768-1.344
			c2.191-0.895,4.033-2.337,5.528-4.325c1.492,1.988,3.346,3.429,5.565,4.325c2.213,0.895,4.765,1.344,7.656,1.344
			c5.975,0,10.579-1.618,13.816-4.85c3.237-3.232,4.857-7.806,4.857-13.724V74.759z M97.724,36.376c2.44,0,4.23,0.783,5.376,2.349
			c1.146,1.566,1.717,4.015,1.717,7.347V56h-0.024v5.424v6.585l11.676-5.687v-0.897V56V45.177c0-5.918-1.592-10.491-4.781-13.724
			c-3.185-3.232-7.792-4.85-13.816-4.85c-2.987,0-5.577,0.449-7.768,1.344c-2.191,0.895-4.033,2.337-5.528,4.325
			c-1.492-1.988-3.346-3.429-5.565-4.325c-2.212-0.895-4.765-1.344-7.656-1.344c-5.975,0-10.579,1.618-13.816,4.85
			c-3.237,3.232-4.857,7.806-4.857,13.724v17.594h11.694v-0.978h-0.042V46.072c0-3.332,0.574-5.781,1.717-7.347
			c1.149-1.566,2.939-2.349,5.379-2.349c2.489,0,4.331,0.795,5.528,2.385c1.194,1.59,1.79,4.027,1.79,7.311v16.699h11.676v-1.464
			h-0.024V46.072c0-3.284,0.599-5.721,1.793-7.311C93.39,37.171,95.235,36.376,97.724,36.376z M127.182,115.174l-4.93-9.637
			c-1.528-0.351-2.938-0.872-4.126-1.712c-2.042-1.442-3.337-3.405-3.884-5.894h30.397c0.149-1.939,0.225-2.983,0.225-3.132
			c0-4.176-0.909-7.842-2.726-11.001c-1.817-3.156-4.322-5.581-7.507-7.271c-3.188-1.69-6.747-2.534-10.68-2.534
			c-4.033,0-7.683,0.883-10.944,2.646c-3.261,1.766-5.826,4.228-7.692,7.384c-1.866,3.159-2.802,6.701-2.802,10.628
			c0,3.979,0.945,7.532,2.839,10.664c1.893,3.135,4.583,5.584,8.069,7.347c3.483,1.766,7.491,2.649,12.023,2.649
			C126.06,115.311,126.591,115.205,127.182,115.174z M150.813,130.287c0-2.494-2.024-4.515-4.522-4.515
			c-2.497,0-4.522,2.022-4.522,4.515c0,2.494,2.024,4.515,4.522,4.515C148.789,134.802,150.813,132.781,150.813,130.287z
			 M155.611,62.668l11.637,0.104v-17.9c0-5.967-1.669-10.428-5.005-13.387c-3.337-2.959-8.118-4.437-14.342-4.437
			c-3.237,0-6.385,0.422-9.446,1.266c-3.063,0.847-6.627,2.546-8.818,4.087l4.182,8.13c1.444-1.144,4.138-2.558,6.205-3.228
			c2.064-0.671,4.17-1.008,6.309-1.008c3.088,0,5.404,0.683,6.947,2.052c1.544,1.369,2.268,2.261,2.268,4.798l-9.257,0.283
			c-5.875,0-10.18,1.841-12.991,3.981c-2.814,2.137-4.29,4.608-4.29,8.338c0,2.337,0.599,4.425,1.793,6.264
			c1.194,1.839,3.341,3.781,5.608,4.828c2.267,1.044,5.01,2.029,8.098,2.029C150.485,68.868,153.417,66.398,155.611,62.668z
			 M180.559,68.868c-3.088,0-5.814,0.495-8.178,1.49c-2.367,0.995-4.246,2.461-5.641,4.401h-11.129v30.778h11.652v-14.89
			c0-3.73,0.945-6.528,2.839-8.391c1.893-1.866,4.507-2.798,7.844-2.798c0.447,0,1.319,0.052,2.614,0.149V68.868z M192.114,12.073
			h-11.652v40.01v6.395v4.374h11.652v-4.374v-6.395V12.073z M211.633,12.073c0-2.494-2.025-4.515-4.522-4.515
			c-2.497,0-4.522,2.022-4.522,4.515c0,2.494,2.024,4.515,4.522,4.515C209.609,16.588,211.633,14.567,211.633,12.073z
			 M246.967,69.476c2.497,0,4.522-2.022,4.522-4.515c0-2.494-2.024-4.515-4.522-4.515c-2.497,0-4.522,2.022-4.522,4.515
			C242.445,67.455,244.47,69.476,246.967,69.476z M253.665,120.512c0-2.494-2.024-4.515-4.522-4.515
			c-2.497,0-4.522,2.022-4.522,4.515c0,2.494,2.024,4.515,4.522,4.515C251.64,125.027,253.665,123.006,253.665,120.512z"/>
	</defs>
	<clipPath id="SVGID_2_" display="inline">
		<use xlink:href="#SVGID_1_"  overflow="visible"/>
	</clipPath>
	
		<polygon id="left-diag_2_" clip-path="url(#SVGID_2_)" fill="#3884C5" stroke="#FFFFFF" stroke-width="1.7008" stroke-miterlimit="10" points="
		54.306,-27.289 89.933,-45.462 211.502,192.188 175.875,210.361 	"/>
	
		<polygon id="right-diag_1_" clip-path="url(#SVGID_2_)" fill="#3884C5" stroke="#FFFFFF" stroke-width="1.7008" stroke-miterlimit="10" points="
		96.717,-32.2 133.909,-51.172 255.478,186.478 218.286,205.45 	"/>
	<g display="inline" clip-path="url(#SVGID_2_)">
		<g id="diag-lt-rb">
			
				<line fill="none" stroke="#FFFFFF" stroke-width="0.2835" stroke-miterlimit="10" x1="160.861" y1="-22.368" x2="282.43" y2="215.282"/>
			
				<line fill="none" stroke="#FFFFFF" stroke-width="0.2835" stroke-miterlimit="10" x1="101.537" y1="-22.368" x2="223.106" y2="215.282"/>
			
				<line fill="none" stroke="#FFFFFF" stroke-width="0.2835" stroke-miterlimit="10" x1="127.807" y1="-22.368" x2="249.376" y2="215.282"/>
			
				<line fill="none" stroke="#FFFFFF" stroke-width="0.2835" stroke-miterlimit="10" x1="-8.787" y1="-22.368" x2="112.783" y2="215.282"/>
			
				<line fill="none" stroke="#FFFFFF" stroke-width="0.2835" stroke-miterlimit="10" x1="56.73" y1="-22.368" x2="178.299" y2="215.282"/>
			
				<line fill="none" stroke="#FFFFFF" stroke-width="0.2835" stroke-miterlimit="10" x1="87.734" y1="-22.368" x2="209.303" y2="215.282"/>
			
				<line fill="none" stroke="#FFFFFF" stroke-width="0.2835" stroke-miterlimit="10" x1="148.518" y1="-22.368" x2="270.088" y2="215.282"/>
			
				<line fill="none" stroke="#FFFFFF" stroke-width="0.2835" stroke-miterlimit="10" x1="139.052" y1="-22.368" x2="260.621" y2="215.282"/>
		</g>
		<g id="diag-lb-rt">
			
				<line fill="none" stroke="#FFFFFF" stroke-width="0.2835" stroke-miterlimit="10" x1="-2.521" y1="120.427" x2="237.55" y2="3.195"/>
			
				<line fill="none" stroke="#FFFFFF" stroke-width="0.2835" stroke-miterlimit="10" x1="13.593" y1="150.705" x2="253.665" y2="33.474"/>
			
				<line fill="none" stroke="#FFFFFF" stroke-width="0.2835" stroke-miterlimit="10" x1="28.483" y1="167.047" x2="268.554" y2="49.815"/>
			
				<line fill="none" stroke="#FFFFFF" stroke-width="0.2835" stroke-miterlimit="10" x1="6.047" y1="136.259" x2="246.118" y2="19.028"/>
		</g>
		<g id="vertical">
			
				<line fill="none" stroke="#FFFFFF" stroke-width="0.2835" stroke-miterlimit="10" x1="192.041" y1="229.114" x2="192.041" y2="-59.724"/>
			
				<line fill="none" stroke="#FFFFFF" stroke-width="0.2835" stroke-miterlimit="10" x1="180.486" y1="229.114" x2="180.486" y2="-59.724"/>
			
				<line fill="none" stroke="#FFFFFF" stroke-width="0.2835" stroke-miterlimit="10" x1="167.174" y1="229.114" x2="167.174" y2="-59.724"/>
			
				<line fill="none" stroke="#FFFFFF" stroke-width="0.2835" stroke-miterlimit="10" x1="155.538" y1="229.114" x2="155.538" y2="-59.724"/>
			
				<line fill="none" stroke="#FFFFFF" stroke-width="0.2835" stroke-miterlimit="10" x1="90.353" y1="229.114" x2="90.353" y2="-59.724"/>
			
				<line fill="none" stroke="#FFFFFF" stroke-width="0.2835" stroke-miterlimit="10" x1="52.61" y1="229.114" x2="52.61" y2="-59.724"/>
			
				<line fill="none" stroke="#FFFFFF" stroke-width="0.2835" stroke-miterlimit="10" x1="64.381" y1="229.91" x2="64.381" y2="-58.928"/>
			
				<line fill="none" stroke="#FFFFFF" stroke-width="0.2835" stroke-miterlimit="10" x1="78.701" y1="226.238" x2="78.701" y2="-62.6"/>
		</g>
		<g id="horizontal">
			
				<line fill="none" stroke="#FFFFFF" stroke-width="0.2835" stroke-miterlimit="10" x1="-51.28" y1="62.851" x2="322.182" y2="62.851"/>
			
				<line fill="none" stroke="#FFFFFF" stroke-width="0.2835" stroke-miterlimit="10" x1="-51.28" y1="56.755" x2="322.182" y2="56.755"/>
			
				<line fill="none" stroke="#FFFFFF" stroke-width="0.2835" stroke-miterlimit="10" x1="-51.424" y1="27.128" x2="322.182" y2="27.128"/>
			
				<line fill="none" stroke="#FFFFFF" stroke-width="0.2835" stroke-miterlimit="10" x1="-51.424" y1="12.073" x2="322.182" y2="12.073"/>
			
				<line fill="none" stroke="#FFFFFF" stroke-width="0.2835" stroke-miterlimit="10" x1="-51.28" y1="68.948" x2="322.182" y2="68.948"/>
			
				<line fill="none" stroke="#FFFFFF" stroke-width="0.2835" stroke-miterlimit="10" x1="-51.28" y1="74.839" x2="322.182" y2="74.839"/>
			
				<line fill="none" stroke="#FFFFFF" stroke-width="0.2835" stroke-miterlimit="10" x1="-51.28" y1="105.616" x2="322.182" y2="105.616"/>
			
				<line fill="none" stroke="#FFFFFF" stroke-width="0.2835" stroke-miterlimit="10" x1="-51.28" y1="115.254" x2="322.182" y2="115.254"/>
			
				<line fill="none" stroke="#FFFFFF" stroke-width="0.2835" stroke-miterlimit="10" x1="-51.28" y1="125.028" x2="322.182" y2="125.028"/>
		</g>
		<g id="letter-outlines">
			<path fill="none" stroke="#FFFFFF" stroke-width="0.2835" stroke-miterlimit="10" d="M147.901,27.048
				c6.224,0,11.005,1.478,14.342,4.437c3.337,2.959,5.005,7.42,5.005,13.387v17.899l-11.637-0.104c-2.194,3.73-5.126,6.2-11.101,6.2
				c-3.088,0-5.831-0.985-8.098-2.029c-2.267-1.047-4.414-2.989-5.608-4.828c-1.194-1.839-1.793-3.927-1.793-6.264
				c0-3.73,1.476-6.202,4.29-8.338c2.811-2.14,7.157-3.208,13.032-3.208h9.263c0-2.537-0.772-4.485-2.316-5.854
				s-3.86-2.052-6.947-2.052c-2.14,0-4.246,0.337-6.309,1.008c-2.067,0.671-4.761,2.084-6.205,3.229l-4.182-8.13
				c2.191-1.542,5.755-3.241,8.818-4.087C141.515,27.47,144.664,27.048,147.901,27.048 M147.007,60.535
				c1.991,0,3.756-0.458,5.3-1.381c1.544-0.92,2.641-2.273,3.288-4.064v-4.103h-7.993c-4.781,0-7.169,1.566-7.169,4.701
				c0,1.49,0.584,2.674,1.754,3.542C143.357,60.101,144.965,60.535,147.007,60.535 M147.901,12.073c-4.57,0-9.09,0.608-13.436,1.806
				c-4.614,1.275-9.77,3.681-13.465,6.281l-10.661,7.501l5.958,11.584l1.558,3.029c-3.048,4.748-3.841,9.657-3.841,13.475
				c0,5.264,1.416,10.113,4.207,14.412c2.817,4.338,7.153,8.082,11.896,10.272c4.991,2.298,9.694,3.412,14.393,3.412
				c7.141,0,13.131-2.059,17.902-6.139l4.702-0.061h15.131V62.771V44.872c0-12.958-5.462-20.521-10.044-24.585
				C166.053,14.837,157.877,12.073,147.901,12.073L147.901,12.073z"/>
			<path fill="none" stroke="#FFFFFF" stroke-width="0.2835" stroke-miterlimit="10" d="M38.293,68.868v26.975
				c0,3.332,0.571,5.781,1.717,7.347s2.936,2.349,5.376,2.349c2.489,0,4.334-0.795,5.528-2.385s1.793-4.027,1.793-7.311V74.759
				H64.36v21.084c0,3.284,0.596,5.721,1.79,7.311c1.197,1.59,3.039,2.385,5.528,2.385c2.44,0,4.23-0.783,5.379-2.349
				c1.143-1.566,1.717-4.015,1.717-7.347V74.759h11.652v21.979c0,5.918-1.62,10.491-4.857,13.724
				c-3.237,3.232-7.841,4.85-13.816,4.85c-2.89,0-5.443-0.449-7.656-1.344c-2.219-0.895-4.072-2.337-5.565-4.325
				c-1.495,1.988-3.337,3.429-5.528,4.325c-2.191,0.895-4.781,1.344-7.768,1.344c-6.024,0-10.631-1.618-13.816-4.85
				c-3.188-3.232-4.781-7.806-4.781-13.724v-27.87H38.293 M53.29,53.892H38.293H26.641H11.645v14.976v27.87
				c0,12.409,4.945,20.027,9.093,24.232c4.186,4.247,11.839,9.316,24.5,9.316c4.874,0,9.353-0.809,13.315-2.406
				c3.97,1.595,8.416,2.406,13.202,2.406c12.539,0,20.201-5.023,24.42-9.236c4.219-4.213,9.249-11.852,9.249-24.313V74.759V59.783
				H90.426h-11.07H64.36H53.29V53.892L53.29,53.892z"/>
			<path fill="none" stroke="#FFFFFF" stroke-width="0.2835" stroke-miterlimit="10" d="M180.559,68.868v10.737
				c-1.295-0.097-2.167-0.149-2.614-0.149c-3.337,0-5.951,0.932-7.844,2.798c-1.893,1.863-2.839,4.662-2.839,8.391v14.89h-11.652
				V74.759h11.129c1.395-1.939,3.273-3.405,5.641-4.401C174.745,69.363,177.471,68.868,180.559,68.868 M195.556,53.892h-14.997
				c-5.09,0-9.802,0.897-14.004,2.666c-2.088,0.878-4.016,1.955-5.774,3.224h-5.17h-14.997v14.976v30.778v14.976h14.997h11.652
				h14.997v-14.976V94.751l13.296,0.998V79.605V68.868V53.892L195.556,53.892z"/>
			<path fill="none" stroke="#FFFFFF" stroke-width="0.2835" stroke-miterlimit="10" d="M123.951,73.992
				c3.933,0,7.491,0.844,10.68,2.534c3.185,1.69,5.689,4.115,7.507,7.271c1.817,3.159,2.726,6.825,2.726,11.001
				c0,0.149-0.076,1.193-0.225,3.132h-30.397c0.547,2.489,1.842,4.452,3.884,5.894c1.188,0.84,2.598,1.361,4.126,1.712l4.93,9.637
				c-0.591,0.031-1.122,0.138-1.738,0.138c-4.531,0-8.54-0.883-12.023-2.649c-3.486-1.763-6.176-4.212-8.069-7.347
				c-1.893-3.132-2.839-6.686-2.839-10.664c0-3.927,0.936-7.469,2.802-10.628c1.866-3.156,4.431-5.617,7.692-7.384
				C116.269,74.875,119.919,73.992,123.951,73.992 M114.093,91.145h19.791c-0.398-2.537-1.492-4.561-3.285-6.079
				c-1.793-1.517-3.984-2.276-6.574-2.276c-2.638,0-4.853,0.747-6.647,2.24C115.585,86.52,114.491,88.559,114.093,91.145
				 M123.951,59.016c-6.535,0-12.62,1.498-18.085,4.453c-5.68,3.076-10.207,7.428-13.465,12.939
				c-3.242,5.489-4.885,11.625-4.885,18.241c0,6.728,1.681,12.92,4.996,18.404c3.357,5.558,8.112,9.923,14.131,12.967
				c6.139,3.16,20.605,4.197,21.468,4.102l19.265-0.019l-10.792-20.249l22.171,0.09l0.834-10.869
				c0.203-2.647,0.269-4.074,0.269-4.277c0-6.806-1.588-13.017-4.719-18.461c-3.24-5.626-7.771-10.01-13.472-13.036
				C136.304,60.457,130.345,59.016,123.951,59.016L123.951,59.016z"/>
			<path fill="none" stroke="#FFFFFF" stroke-width="0.2835" stroke-miterlimit="10" d="M97.873,26.604
				c6.024,0,10.631,1.618,13.816,4.85c3.188,3.232,4.781,7.806,4.781,13.724V56v5.424v1.424v3.185v2.834h-11.676v-7.444V56h0.024
				v-9.928c0-3.332-0.571-5.781-1.717-7.347c-1.146-1.566-2.936-2.349-5.376-2.349c-2.489,0-4.334,0.795-5.528,2.385
				c-1.194,1.59-1.793,4.027-1.793,7.311v15.235h0.024v1.464H78.75V46.072c0-3.284-0.596-5.721-1.79-7.311
				c-1.197-1.59-3.039-2.385-5.528-2.385c-2.44,0-4.23,0.783-5.379,2.349c-1.143,1.566-1.717,4.015-1.717,7.347v15.721h0.042v0.978
				H52.684V45.177c0-5.918,1.62-10.491,4.857-13.724c3.237-3.232,7.841-4.85,13.816-4.85c2.89,0,5.443,0.449,7.656,1.344
				c2.219,0.895,4.072,2.337,5.565,4.325c1.495-1.988,3.337-3.429,5.528-4.325C92.296,27.053,94.885,26.604,97.873,26.604
				 M97.873,11.628c-4.874,0-9.353,0.809-13.315,2.406c-3.97-1.595-8.416-2.406-13.202-2.406c-12.539,0-20.201,5.022-24.42,9.236
				s-8.575,11.852-8.575,24.313v17.594v14.976h14.323h11.694h14.997h10.422v6.097h14.997h11.676h14.997V68.868v-2.834v-3.185v-1.424
				V56V45.177c0-12.409-4.945-20.027-9.093-24.232C118.187,16.697,110.534,11.628,97.873,11.628L97.873,11.628z"/>
			<path fill="none" stroke="#FFFFFF" stroke-width="0.2835" stroke-miterlimit="10" d="M192.115-2.746v51.541v8.238v5.635h-11.652
				v-5.635v-8.238V-2.746H192.115 M207.112-17.722h-14.997h-11.652h-14.997v14.976v51.541v8.238v5.635v14.976h14.997h11.652h14.997
				V62.668v-5.635v-8.238V-2.746V-17.722L207.112-17.722z"/>
			<path fill="none" stroke="#FFFFFF" stroke-width="0.2835" stroke-miterlimit="10" d="M203.767,68.868v21.219l12.327-15.329
				h12.142l-10.597,13.679l8.61,16.807l0.003-0.002l3.054,5.97l0.06,0.117l1.966,3.844h-0.006l9.876,19.292H228.86l-10.247-20.107
				l-1.55-3.029l-6.884-13.347l-6.097,7.554h-11.968V68.868H203.767 M207.119,53.892h-3.353h-11.652h-13.762v14.976v36.668v14.976
				h13.762h14.104l10.377,20.186l3.827,7.51h8.438h12.342h22.491l-10.741-19.997l-20.149-38.452c0,0,0,0,9.427-13.193
				c3.348-4.81,5.896-8.726,4.736-11.438c-1.266-2.961-4.522-4.111-8.311-4.111c-10.42,0-10.42,0-10.42,0h-21.117v-5.891V53.892z"/>
		</g>
		
			<line fill="none" stroke="#FFFFFF" stroke-width="0.2835" stroke-miterlimit="10" x1="206.218" y1="120.512" x2="248.963" y2="120.597"/>
		<path id="inner-border" fill="none" stroke="#FFFFFF" stroke-width="0.2835" stroke-miterlimit="10" d="M237.612,61.016
			l-30.5,0.025l0.002-48.968l-137.193,0c-2.227,0-4.324-0.089-6.485,0.288c-6.53,1.137-12.677,4.284-16.979,8.998
			c-5.468,5.992-8.091,14.605-8.091,23.144l-0.073,9.39H11.645v44.917c0,5.889,2.649,15.009,8.412,21.445
			c5.298,5.918,13.371,9.392,21.298,9.85h106.023l-5.027-9.592l106.613,0.085l-16.159-30.839l10.608-14.937
			C250.282,64.961,247.811,60.884,237.612,61.016z"/>
	</g>
</g>
</svg>
