<svg version="1" xmlns="http://www.w3.org/2000/svg" width="800" height="800" viewBox="0 0 600.000000 600.000000"><path d="M270.5 1.1c-64 6.5-127.2 35.1-173.4 78.4-28.9 27-49 54-65.6 88-16 32.6-24.8 62.4-29.1 98-2.2 17.5-2.2 51.9 0 69.2 5.8 47.8 21.7 91.2 47.8 130.3 13.1 19.7 20.6 28.9 37.8 46.1 21.9 22.1 45.9 40 71 53.2l10.5 5.5 131.9-65.4c72.6-35.9 132.3-65.5 132.7-65.6.5-.2 1-36.8 1.1-81.3.3-80.4.3-81.1-1.9-90.9-6-26.9-19.7-38.6-45.3-38.6-26.3 0-41.4 13.2-46.7 41-1.6 8.5-1.8 16.1-1.8 72.7V405h-78.4l-.4-65.3c-.4-72.4-.5-73.1-7.2-87.4-7.6-16.4-21.2-24.3-41.5-24.3-22.4 0-36.7 10.5-42.9 31.5-3.6 12.3-4.1 22-4.1 84.7V405H85.9l.4-68.8c.4-74.4.5-75.9 6.2-95.7 5.4-18.7 13.9-33.1 26.9-46 21.3-21.1 47.4-30.9 85.6-32.2 21.2-.7 35.2 1.1 51 6.3 16.3 5.4 27.2 12.3 38.3 24.4l5.7 6.1 7.8-7.8c8.8-8.8 16-14 26.6-18.9 27.2-12.5 72.5-13.7 105.5-2.8 17.5 5.8 28.4 12.3 40.4 24.1 16.7 16.4 27.1 38.2 31.8 66.4.8 5.1 1.3 27.9 1.6 73.1.3 36.2.7 65.8 1 65.8.2 0 18.4-8.8 40.2-19.6l39.8-19.6 1.7-10.6c5.4-34.6 4.9-73-1.4-106.3-17.3-91.3-78.4-171.3-162.5-212.4-29.3-14.4-55.1-22.4-89-27.7-14.9-2.3-57.5-3.3-73-1.7z"/></svg>