<?xml version="1.0" standalone="no"?>
<!DOCTYPE svg PUBLIC "-//W3C//DTD SVG 20010904//EN"
 "http://www.w3.org/TR/2001/REC-SVG-20010904/DTD/svg10.dtd">
<svg version="1.0" xmlns="http://www.w3.org/2000/svg"
 width="117.000000pt" height="117.000000pt" viewBox="0 0 117.000000 117.000000"
 preserveAspectRatio="xMidYMid meet">
<metadata>
Created by potrace 1.11, written by Peter Selinger 2001-2013
</metadata>
<g transform="translate(0.000000,117.000000) scale(0.100000,-0.100000)"
fill="#000000" stroke="none">
<path d="M454 1155 c-208 -45 -395 -234 -440 -444 -43 -204 14 -391 165 -541
42 -41 94 -83 116 -93 l41 -18 257 127 257 126 -1 162 c0 192 -9 226 -59 242
-41 13 -89 2 -105 -23 -20 -34 -23 -59 -24 -185 l-1 -128 -75 0 -75 0 -1 128
c-1 126 -4 151 -24 185 -15 24 -63 36 -103 25 -51 -14 -62 -52 -62 -208 l0
-130 -75 0 -75 0 0 138 c0 171 14 225 69 275 46 41 93 57 174 57 62 0 119 -19
153 -51 20 -18 22 -19 35 -3 25 31 91 54 154 54 82 0 130 -15 175 -56 57 -52
70 -101 70 -266 0 -76 2 -138 5 -138 2 0 38 17 79 37 68 33 74 39 80 72 40
241 -101 506 -326 610 -128 60 -251 75 -384 46z"/>
</g>
</svg>
